:version 1.10
:name ASF
:units
  mass 1
  length 1
  angle deg
:documentation
  ASF file generated by Kaydara
:root
  axis xyz
  order  tx ty tz rx ry rz
  position 0 0 0
  orientation 0 0 0
:bonedata
  begin
    id 1
    name SpineDummy
    direction 0.999998 -0.00179978 1.38929e-006
    length 3.60008
    axis 0 0 0 xyz
  end
  begin
    id 2
    name Spine
    direction 0.964365 0.262802 0.0305839
    length 8.13928
    axis 1.33928 -1.75354 15.2838 xyz
    dof rx ry rz
  end
  begin
    id 3
    name Spine1
    direction 0.811168 0.572065 0.12144
    length 7.14954
    axis 2.2224 -6.9761 35.2157 xyz
    dof rx ry rz
  end
  begin
    id 4
    name Neck
    direction 0 0 0
    length 0
    axis 2.2224 -6.9761 35.2157 xyz
    dof rx ry rz
  end
  begin
    id 5
    name HeadDummy
    direction 0.810939 0.572387 0.121455
    length 3.55534
    axis 2.2224 -6.9761 35.2157 xyz
  end
  begin
    id 6
    name Head
    direction 0.998226 -0.000232542 0.0595419
    length 7.35666
    axis -3.03688 -3.41352 -0.0133467 xyz
    dof rx ry rz
  end
  begin
    id 7
    name R_ClavicleDummy
    direction 0.531669 -0.194489 -0.824319
    length 2.49392
    axis 2.2224 -6.9761 35.2157 xyz
  end
  begin
    id 8
    name R_Clavicle
    direction -0.155119 0.0480802 -0.986725
    length 4.485
    axis -54.2764 80.6538 162.779 xyz
    dof rx ry rz
  end
  begin
    id 9
    name R_UpperArm
    direction -0.955567 0.200068 -0.216484
    length 10.1122
    axis -72.9943 12.5026 168.175 xyz
    dof rx ry rz
  end
  begin
    id 10
    name R_Forearm
    direction -0.61433 0.385743 0.688332
    length 9.39148
    axis -117.015 -43.4982 147.875 xyz
    dof rx ry rz
  end
  begin
    id 11
    name R_Hand
    direction -0.699429 0.0170333 0.714499
    length 3.66324
    axis -45.0303 -36.7097 175.478 xyz
    dof rx ry rz
  end
  begin
    id 12
    name L_ClavicleDummy
    direction 0.40287 -0.36502 0.839319
    length 2.49392
    axis 2.2224 -6.9761 35.2157 xyz
  end
  begin
    id 13
    name L_Clavicle
    direction -0.231271 -0.0726419 0.970174
    length 4.485
    axis 18.4357 -75.9711 -162.563 xyz
    dof rx ry rz
  end
  begin
    id 14
    name L_UpperArm
    direction -0.917494 0.144359 0.370629
    length 10.1122
    axis 56.0417 -21.7544 171.058 xyz
    dof rx ry rz
  end
  begin
    id 15
    name L_Forearm
    direction -0.496786 0.615074 -0.612281
    length 9.39148
    axis 89.8094 37.7546 128.927 xyz
    dof rx ry rz
  end
  begin
    id 16
    name L_Hand
    direction -0.409932 0.64962 -0.640274
    length 3.66324
    axis -0.424369 32.133 128.52 xyz
    dof rx ry rz
  end
  begin
    id 17
    name L_ThighDummy
    direction -1.84081e-006 1.87549e-006 1
    length 3.13049
    axis 0 0 0 xyz
  end
  begin
    id 18
    name L_Thigh
    direction -0.947739 0.307978 0.083308
    length 17.9961
    axis 173.219 -4.77873 161.998 xyz
    dof rx ry rz
  end
  begin
    id 19
    name L_Calf
    direction -0.728814 -0.684427 0.0197583
    length 13.3367
    axis 167.331 -1.13214 -136.799 xyz
    dof rx ry rz
  end
  begin
    id 20
    name L_Foot
    direction -0.9028 0.418719 0.0981191
    length 5.8674
    axis 163.436 11.5135 -155.37 xyz
    dof rx ry rz
  end
  begin
    id 21
    name L_Toe0
    direction -0.35341 0.886259 0.299411
    length 4.75286
    axis 169.316 -17.4222 111.74 xyz
    dof rx ry rz
  end
  begin
    id 22
    name R_ThighDummy
    direction 9.32778e-007 -8.82053e-007 -1
    length 3.13049
    axis 0 0 0 xyz
  end
  begin
    id 23
    name R_Thigh
    direction -0.925064 0.37528 -0.0585023
    length 17.9961
    axis -178.698 3.35385 157.919 xyz
    dof rx ry rz
  end
  begin
    id 24
    name R_Calf
    direction -0.68969 -0.718776 -0.0876886
    length 13.3367
    axis -160.504 5.03065 -133.817 xyz
    dof rx ry rz
  end
  begin
    id 25
    name R_Foot
    direction -0.857405 0.418858 -0.299022
    length 5.8674
    axis -161.328 4.38911 -154.413 xyz
    dof rx ry rz
  end
  begin
    id 26
    name R_Toe0
    direction -0.100745 0.952789 -0.286433
    length 4.75286
    axis 171.683 16.6445 96.0359 xyz
    dof rx ry rz
  end
:hierarchy
  begin
    root SpineDummy L_ThighDummy R_ThighDummy
    SpineDummy Spine
    Spine Spine1
    Spine1 Neck
    Neck HeadDummy R_ClavicleDummy L_ClavicleDummy
    HeadDummy Head
    R_ClavicleDummy R_Clavicle
    R_Clavicle R_UpperArm
    R_UpperArm R_Forearm
    R_Forearm R_Hand
    L_ClavicleDummy L_Clavicle
    L_Clavicle L_UpperArm
    L_UpperArm L_Forearm
    L_Forearm L_Hand
    L_ThighDummy L_Thigh
    L_Thigh L_Calf
    L_Calf L_Foot
    L_Foot L_Toe0
    R_ThighDummy R_Thigh
    R_Thigh R_Calf
    R_Calf R_Foot
    R_Foot R_Toe0
  end

:SAMPLES-PER-SECOND 30
:FULLY-SPECIFIED
:DEGREES
361
root  -1.54 31.3487 -9.87971 121.711 17.413 -142.387
Spine  -22.4869 -28.7176 10.6393
Spine1  -30.4583 31.7885 -45.0515
Neck  3.97569e-016 0 -2.38542e-015
Head  -27.9992 5.13532 27.1749
R_Clavicle  5.59689 24.0202 15.282
R_UpperArm  79.7158 36.803 44.5478
R_Forearm  -14.1023 -8.50267 13.3234
R_Hand  -34.9864 34.827 -100.405
L_Clavicle  0.89918 -11.8009 -2.36313
L_UpperArm  -17.7245 -63.8739 -18.3351
L_Forearm  -16.8882 37.5762 66.3714
L_Hand  0.00359728 -4.77438 -10.0341
L_Thigh  3.15276 52.2187 44.6501
L_Calf  -21.8626 -8.83294 56.7099
L_Foot  3.67735 13.0875 1.55531
L_Toe0  0.505156 0.0344454 -6.1361
R_Thigh  -3.08232 -49.097 19.9837
R_Calf  -13.807 11.1303 37.3492
R_Foot  4.48429 16.8915 -11.3679
R_Toe0  -1.78853 -0.270401 -17.3236
362
root  -2.03703 31.7325 -11.7252 105.599 11.8072 -144.585
Spine  -24.5297 -27.9978 13.5623
Spine1  -34.174 37.0474 -45.5824
Neck  3.97569e-016 0 -2.38542e-015
Head  -21.7588 4.75845 24.4205
R_Clavicle  7.84281 27.1416 19.7837
R_UpperArm  73.1616 42.2502 27.1905
R_Forearm  4.62824 -12.9462 18.4518
R_Hand  -33.5776 27.8063 -108.156
L_Clavicle  1.27875 -12.2217 -3.86932
L_UpperArm  -12.2806 -61.0845 -27.7459
L_Forearm  -20.4819 38.147 66.1751
L_Hand  0.272507 -8.2326 -10.1141
L_Thigh  2.24394 53.3952 42.7531
L_Calf  -22.3867 -9.22518 56.9566
L_Foot  1.69491 12.4471 -4.34406
L_Toe0  0.505156 0.0344454 -6.1361
R_Thigh  -9.40836 -50.6177 29.3843
R_Calf  -10.5301 12.0748 41.6658
R_Foot  4.03094 14.409 -9.86755
R_Toe0  -1.78853 -0.270391 -17.3236
363
root  -3.19011 32.5021 -12.9848 88.0354 5.29526 -145.701
Spine  -23.2635 -24.779 13.4955
Spine1  -33.6577 39.2181 -43.4685
Neck  3.97569e-016 0 -2.38542e-015
Head  -14.4486 4.11249 18.15
R_Clavicle  10.7878 28.4456 26.0625
R_UpperArm  70.1751 44.4968 10.8993
R_Forearm  21.1979 -9.29654 18.0172
R_Hand  -29.9855 24.4352 -107.349
L_Clavicle  1.43315 -10.753 -4.91703
L_UpperArm  -11.7918 -58.5986 -28.8519
L_Forearm  -30.5393 38.8483 65.9295
L_Hand  0.452239 -11.192 -8.48344
L_Thigh  -1.05645 54.2314 36.5078
L_Calf  -20.9149 -9.40635 56.7805
L_Foot  -0.301133 10.8234 -10.1626
L_Toe0  0.505156 0.0344454 -6.1361
R_Thigh  -14.0745 -51.5493 39.2422
R_Calf  -8.04215 12.498 45.2357
R_Foot  3.43388 11.5406 -8.13852
R_Toe0  -1.78853 -0.270381 -17.3236
364
root  -4.71352 33.4329 -13.3723 69.9907 -2.07748 -145.68
Spine  -20.2414 -20.5831 11.3715
Spine1  -29.9797 38.8278 -38.6339
Neck  3.97569e-016 0 -2.38542e-015
Head  -8.24247 6.07712 12.1162
R_Clavicle  9.92104 28.0033 24.2758
R_UpperArm  70.3058 48.7461 6.71204
R_Forearm  35.4345 -7.23274 17.4985
R_Hand  -31.4153 23.8154 -111.476
L_Clavicle  1.07297 -9.22296 -3.75031
L_UpperArm  -12.65 -56.8062 -29.8805
L_Forearm  -43.3783 38.5039 66.651
L_Hand  0.152612 -7.23928 -9.10088
L_Thigh  -4.43861 53.5722 29.6334
L_Calf  -17.3593 -9.2761 56.6674
L_Foot  -2.33994 6.22351 -15.5216
L_Toe0  0.505156 0.0344454 -6.1361
R_Thigh  -18.5564 -52.5603 47.0426
R_Calf  -4.42862 12.4866 44.7923
R_Foot  2.67343 8.28026 -7.05019
R_Toe0  -1.78853 -0.27037 -17.3236
365
root  -6.0723 34.2297 -12.8014 51.1328 -8.4798 -144.986
Spine  -16.4993 -15.4864 10.0869
Spine1  -24.683 34.5489 -34.3762
Neck  3.97569e-016 0 -2.38542e-015
Head  -4.69761 8.39364 9.78064
R_Clavicle  6.83748 27.0664 17.4525
R_UpperArm  71.6578 51.2628 11.3481
R_Forearm  48.8834 -6.20329 15.71
R_Hand  -34.7506 22.7194 -119.838
L_Clavicle  0.569118 -8.28299 -1.6227
L_UpperArm  -15.142 -55.3257 -29.0198
L_Forearm  -54.7712 36.9424 62.4384
L_Hand  0.205811 -4.45624 -8.92324
L_Thigh  -8.2953 52.1654 22.134
L_Calf  -14.0967 -9.33931 56.0657
L_Foot  -3.57996 -1.19756 -17.6041
L_Toe0  0.505156 0.0344454 -6.1361
R_Thigh  -20.7923 -53.7976 49.792
R_Calf  -1.32112 11.6175 39.1683
R_Foot  1.89647 5.4988 -4.80968
R_Toe0  -1.78853 -0.270361 -17.3236
366
root  -6.82915 34.6328 -11.6294 31.0627 -13.6598 -144.143
Spine  -12.3602 -9.52186 10.7966
Spine1  -18.8509 25.8019 -32.7629
Neck  3.97569e-016 0 -2.38542e-015
Head  -4.07296 9.39035 9.27826
R_Clavicle  4.34637 25.8813 11.7634
R_UpperArm  71.5227 47.676 13.6447
R_Forearm  68.3204 -1.57525 10.895
R_Hand  -26.8433 14.2841 -123.106
L_Clavicle  0.44281 -8.31855 -1.0274
L_UpperArm  -28.5214 -51.978 -13.7579
L_Forearm  -75.4169 26.2117 37.4189
L_Hand  1.7563 -21.7979 -20.3711
L_Thigh  -13.2142 50.2332 13.7313
L_Calf  -10.8071 -9.8028 54.662
L_Foot  -4.18751 -8.45575 -16.9036
L_Toe0  0.505156 0.0344454 -6.1361
R_Thigh  -17.6206 -55.3523 47.3698
R_Calf  -0.428674 9.52186 31.0798
R_Foot  1.22335 3.83676 -1.32689
R_Toe0  -1.78853 -0.270351 -17.3236
367
root  -7.0112 34.7114 -10.291 9.69287 -18.4388 -142.23
Spine  -7.94164 -2.62722 11.3047
Spine1  -12.1687 12.0592 -32.0135
Neck  3.97569e-016 0 -2.38542e-015
Head  -6.51931 10.2457 8.79393
R_Clavicle  2.61705 21.8022 7.99288
R_UpperArm  67.7247 44.7112 11.9608
R_Forearm  86.6293 3.37047 6.04476
R_Hand  -17.8728 6.17044 -125.492
L_Clavicle  0.142152 -8.89415 0.536316
L_UpperArm  -40.2914 -46.9341 -2.25891
L_Forearm  -87.5815 8.24531 14.7554
L_Hand  22.8142 -38.84 -66.0042
L_Thigh  -16.8795 47.3847 7.71678
L_Calf  -7.32495 -10.0205 52.7019
L_Foot  -4.45277 -11.7035 -16.0724
L_Toe0  0.505156 0.0344454 -6.1361
R_Thigh  -13.4567 -57.245 42.2618
R_Calf  1.31045 7.6542 24.3997
R_Foot  1.12071 3.96857 0.428714
R_Toe0  -1.78853 -0.270341 -17.3236
368
root  -6.75224 34.6677 -8.93178 -12.8918 -22.7218 -139.755
Spine  -2.20201 6.91499 12.0266
Spine1  -3.46639 -7.85328 -32.4336
Neck  3.97569e-016 0 -2.38542e-015
Head  -11.9358 10.8239 9.50198
R_Clavicle  1.18286 16.1236 4.44468
R_UpperArm  64.9864 42.4216 11.9956
R_Forearm  99.993 4.89613 3.84888
R_Hand  -12.0132 1.74563 -125.145
L_Clavicle  -0.882675 -7.10283 5.11476
L_UpperArm  -34.7976 -50.1778 -12.6018
L_Forearm  -76.8108 4.47311 12.2889
L_Hand  28.8166 -33.6781 -88.0324
L_Thigh  -19.9268 44.7344 6.76639
L_Calf  -3.96365 -8.9217 48.1842
L_Foot  -4.23965 -10.798 -14.9446
L_Toe0  0.505156 0.0344454 -6.1361
R_Thigh  -11.3342 -58.5653 35.9454
R_Calf  3.37887 6.62212 20.8744
R_Foot  1.47341 5.15493 0.4
R_Toe0  -1.78853 -0.270332 -17.3236
369
root  -6.02686 34.6246 -7.78754 -34.9895 -28.0363 -139.105
Spine  5.99416 16.9671 17.4666
Spine1  7.60836 -28.7085 -35.7406
Neck  3.97569e-016 0 -2.38542e-015
Head  -17.7178 10.196 11.6456
R_Clavicle  0.124772 13.2046 1.22857
R_UpperArm  67.0994 39.9244 14.381
R_Forearm  96.3685 1.33022 6.75816
R_Hand  -20.0794 7.4859 -124.241
L_Clavicle  -2.33556 -6.41443 12.9791
L_UpperArm  -21.4316 -58.2609 -28.2318
L_Forearm  -68.8849 8.85134 14.7503
L_Hand  26.9967 -36.3882 -80.5994
L_Thigh  -24.4001 44.0556 10.2397
L_Calf  -0.311225 -5.71925 40.457
L_Foot  -3.84004 -8.89202 -13.4693
L_Toe0  0.505156 0.0344454 -6.1361
R_Thigh  -11.4855 -59.3814 28.5003
R_Calf  5.9491 6.08132 19.0412
R_Foot  1.50169 5.22706 0.307185
R_Toe0  -1.78853 -0.270323 -17.3236
370
root  -5.21277 34.633 -7.11665 -54.7729 -36.065 -138.765
Spine  14.6424 21.6325 26.296
Spine1  17.8292 -41.6509 -39.4347
Neck  3.97569e-016 0 -2.38542e-015
Head  -20.5929 9.36099 13.528
R_Clavicle  -1.03273 14.3807 -2.48303
R_UpperArm  72.4752 38.7459 20.5587
R_Forearm  70.7083 -2.4803 9.44686
R_Hand  -51.805 41.9928 -115.722
L_Clavicle  -3.29681 -4.23738 19.2044
L_UpperArm  0.911953 -67.4027 -48.9018
L_Forearm  -69.8451 17.0269 19.3065
L_Hand  22.8361 -37.8467 -67.3449
L_Thigh  -21.1176 44.603 17.0608
L_Calf  -4.54334 -4.55338 35.2245
L_Foot  -3.19703 -5.80837 -11.983
L_Toe0  0.505156 0.0344454 -6.1361
R_Thigh  -11.8878 -60.8359 20.2075
R_Calf  8.6951 5.18537 16.0695
R_Foot  1.24534 4.31477 0.13474
R_Toe0  -1.78853 -0.270315 -17.3236
371
root  -4.68246 34.771 -6.61258 -74.1624 -43.9962 -133.843
Spine  20.6774 22.7626 31.4609
Spine1  23.4343 -46.5893 -39.8177
Neck  3.97569e-016 0 -2.38542e-015
Head  -19.6884 9.71979 15.233
R_Clavicle  -2.10372 15.9053 -5.55144
R_UpperArm  71.8787 41.8629 25.6195
R_Forearm  50.9524 -14.2245 17.06
R_Hand  -21.5333 58.359 -55.2616
L_Clavicle  -4.03537 -5.02948 22.5985
L_UpperArm  17.2039 -72.027 -62.3386
L_Forearm  -68.5721 20.2907 21.0548
L_Hand  22.3559 -37.7882 -66.6444
L_Thigh  -15.3509 43.081 27.6873
L_Calf  -8.53803 -4.95842 37.5346
L_Foot  -1.9138 -1.41202 -8.40725
L_Toe0  0.505156 0.0344454 -6.1361
R_Thigh  -10.3944 -61.7908 12.486
R_Calf  10.0477 3.4499 10.5106
R_Foot  0.802408 3.04106 0.897261
R_Toe0  -1.78853 -0.270306 -17.3236
372
root  -3.96516 34.9392 -6.30712 -96.8574 -49.0939 -123.034
Spine  25.2575 24.6069 33.0051
Spine1  26.2327 -48.0881 -39.0641
Neck  3.97569e-016 0 -2.38542e-015
Head  -16.5636 11.2636 18.7674
R_Clavicle  -2.84559 14.7581 -8.11613
R_UpperArm  62.1821 57.9001 21.8364
R_Forearm  21.5292 -35.4945 37.2263
R_Hand  0.00715214 23.7609 -13.031
L_Clavicle  -4.16537 -4.46151 23.8218
L_UpperArm  10.9331 -74.1697 -55.3577
L_Forearm  -60.242 16.9843 18.4273
L_Hand  23.9755 -39.7397 -67.1335
L_Thigh  -10.0533 39.6157 38.5625
L_Calf  -8.93257 -7.37384 46.2024
L_Foot  -0.978942 0.0593954 -4.93063
L_Toe0  0.505156 0.0344454 -6.1361
R_Thigh  -8.21689 -60.7444 7.30397
R_Calf  11.1124 0.946624 2.7184
R_Foot  -0.347459 0.0645161 3.13862
R_Toe0  -1.78853 -0.270298 -17.3236
373
root  -3.12107 34.9396 -6.7532 -125.301 -52.7385 -108.053
Spine  29.7483 25.4621 36.1715
Spine1  29.3843 -48.7523 -40.1531
Neck  3.97569e-016 0 -2.38542e-015
Head  -13.3353 13.1609 23.9052
R_Clavicle  -2.54445 11.8097 -7.92618
R_UpperArm  52.1679 60.8688 21.7527
R_Forearm  27.6361 -28.633 24.208
R_Hand  2.32036 15.7473 -2.54321
L_Clavicle  -4.11207 -3.44138 24.5352
L_UpperArm  2.28674 -75.5054 -46.5123
L_Forearm  -45.8878 14.3265 17.4618
L_Hand  22.8226 -40.8991 -62.4811
L_Thigh  -9.33567 36.8394 44.7679
L_Calf  -9.56705 -11.2686 50.5228
L_Foot  -1.08199 0.203355 -5.59583
L_Toe0  0.505156 0.0344454 -6.1361
R_Thigh  -10.2039 -58.67 6.50772
R_Calf  13.7934 -2.05925 -6.59169
R_Foot  -1.77775 -3.16801 5.91735
R_Toe0  -1.78853 -0.27029 -17.3236
374
root  -2.66976 34.8461 -7.61892 -159.95 -54.2647 -88.8215
Spine  32.1827 23.2715 41.2009
Spine1  32.0853 -48.2647 -40.8434
Neck  3.97569e-016 0 -2.38542e-015
Head  -10.3827 15.1772 28.7361
R_Clavicle  -1.59453 10.3309 -4.99491
R_UpperArm  45.4344 61.8394 26.3056
R_Forearm  43.4666 -13.366 11.5321
R_Hand  1.89085 12.2954 -2.04694
L_Clavicle  -4.63347 -5.35777 25.4352
L_UpperArm  -6.27931 -78.1913 -34.788
L_Forearm  -29.5259 15.5348 20.396
L_Hand  22.0515 -39.0804 -63.6921
L_Thigh  -26.8517 34.7571 45.346
L_Calf  -2.3472 -9.50487 43.9792
L_Foot  -0.187567 2.41969 -3.61
L_Toe0  0.505156 0.0344454 -6.1361
R_Thigh  -16.7897 -56.1168 9.56912
R_Calf  18.4239 -5.32892 -16.9408
R_Foot  -2.67896 -4.07176 9.58971
R_Toe0  -1.78853 -0.270282 -17.3236
375
root  -2.71585 34.5827 -8.98539 166.371 -49.5769 -71.6956
Spine  32.9048 21.5445 43.3339
Spine1  33.0186 -47.0775 -39.8547
Neck  3.97569e-016 0 -2.38542e-015
Head  -7.44906 16.6156 33.2721
R_Clavicle  -0.864267 9.86213 -2.47697
R_UpperArm  56.3726 60.6434 39.1567
R_Forearm  49.1207 -2.19027 1.794
R_Hand  -0.37451 12.4443 -15.7742
L_Clavicle  -5.24134 -7.45303 26.4161
L_UpperArm  -37.5463 -79.297 1.82135
L_Forearm  -17.198 14.6432 19.3435
L_Hand  22.9083 -39.995 -64.1773
L_Thigh  -41.3078 33.9943 45.0711
L_Calf  2.36665 -3.87624 31.7693
L_Foot  1.88204 2.60028 5.4956
L_Toe0  0.505156 0.0344454 -6.1361
R_Thigh  -21.69 -53.6295 14.2668
R_Calf  24.1914 -7.91801 -25.5972
R_Foot  -3.69235 -5.09389 13.2154
R_Toe0  -1.78853 -0.270275 -17.3236
